PathFileType	4	(X/Y/Z)	D:\TRACE\spotREDO_2-26-24\spot_Both_Motion_3_8-v60.trc
DataRate	CameraRate	NumFrames	NumMarkers	Units	OrigDataRate	OrigDataStartFrame	OrigNumFrames
100.00	100.00	      38	9	mm	100.00	4376	      7000
Frame#	Time	front left toe			Front right toe			aft left toe			aft right toe			Arm			FL body			FR body			AL Body			AR Body			
		X1	Y1	Z1	X2	Y2	Z2	X3	Y3	Z3	X4	Y4	Z4	X5	Y5	Z5	X6	Y6	Z6	X7	Y7	Z7	X8	Y8	Z8	X9	Y9	Z9	

4376	43.750	-141.50999	-29.94786	-510.73730	292.81561	-31.85004	-535.43085	-106.13266	29.95770	122.36853	320.41095	33.34650	88.29425	76.30219	584.02277	-818.56799	-25.14355	460.91504	-590.82843	129.78418	463.24518	-601.23199	28.77015	573.99677	284.47955	175.63899	566.35150	277.98523	
4377	43.760	-141.36848	-29.73011	-510.63992	292.83771	-31.53564	-535.52222	-105.82624	29.84605	122.48660	320.53699	33.17994	88.36158	76.47971	584.02087	-818.52917	-24.96808	461.32892	-590.94287	129.79199	463.89807	-601.78607	29.17954	573.90833	284.37643	176.01624	566.31146	277.86819	
4378	43.770	-141.19527	-29.23833	-510.68900	293.01852	-31.13262	-535.52570	-105.74122	29.87616	122.51722	320.70819	33.12605	88.46404	76.70028	584.07007	-818.53955	-24.85937	461.64041	-591.02039	129.89049	464.24951	-602.08350	29.47032	573.90149	284.29333	176.53214	566.24017	277.69244	
4379	43.780	-141.14728	-28.88223	-510.70459	293.09625	-30.95505	-535.49695	-105.71223	29.90391	122.55753	320.91318	33.18804	88.59804	76.95160	584.18597	-818.69952	-24.68841	462.07007	-591.13440	130.18961	464.66257	-602.28491	29.77107	573.87579	284.24564	176.94270	566.16803	277.57718	
4380	43.790	-140.90285	-28.63126	-510.74823	293.14786	-30.86741	-535.44989	-105.64487	29.82908	122.69952	321.09534	33.17908	88.72379	76.83002	584.41003	-818.77399	-24.57157	462.35983	-591.25690	130.42505	464.96552	-602.50610	30.06869	573.81317	284.11209	177.10870	566.16718	277.45383	
4381	43.800	-140.65877	-28.26607	-510.73984	293.23404	-30.69535	-535.35168	-105.58503	29.79617	122.79444	321.22330	33.19912	88.82373	76.84398	584.58777	-818.76666	-24.03112	462.46210	-591.31665	130.78571	465.38428	-602.49408	30.34064	573.66510	283.98334	177.30312	566.22095	277.35699	
4382	43.810	-140.51974	-28.08563	-510.62045	293.35181	-30.50983	-535.32153	-105.49544	29.74263	122.88942	321.61951	33.33418	89.12840	76.98049	584.80676	-818.80865	-23.68917	462.72720	-591.50189	131.18869	465.76828	-602.68378	30.57052	573.56110	283.90637	177.43510	566.25946	277.27435	
4383	43.820	-140.46141	-27.93060	-510.56424	293.53760	-30.13226	-535.31464	-105.41490	29.64801	122.96060	321.79239	33.27333	89.17027	77.27187	585.04242	-818.95038	-23.37467	462.99136	-591.59705	131.42844	465.95096	-602.78296	30.85238	573.41980	283.80377	177.68541	566.18286	277.19162	
4384	43.830	-140.36090	-27.72217	-510.48282	293.70432	-29.89656	-535.35956	-105.31664	29.57130	123.07220	322.09915	33.39100	89.33814	77.20030	585.38000	-818.99939	-23.21322	463.36618	-591.64880	132.04140	465.99948	-602.23761	31.30363	573.26080	283.81140	178.08766	566.19971	277.10120	
4385	43.840	-140.20258	-27.44802	-510.42587	293.81937	-29.63519	-535.34595	-105.24142	29.56126	123.11599	322.52820	33.43955	89.47069	77.52782	585.63007	-819.11041	-22.84547	463.64517	-591.75983	132.30708	466.28854	-602.38318	31.53378	573.16522	283.72928	178.45941	566.20825	277.00949	
4386	43.850	-140.07321	-27.11698	-510.44174	294.10785	-29.40972	-535.23145	-105.16721	29.52848	123.21007	322.69958	33.42643	89.57531	77.89600	585.99249	-819.22839	-22.35268	463.79678	-591.91571	132.77556	466.67273	-602.64917	31.66078	572.63605	283.42264	178.76210	566.18347	276.96786	
4387	43.860	-139.91096	-26.95327	-510.37524	294.27780	-29.30110	-535.15784	-105.00975	29.48855	123.23045	322.83731	33.38380	89.63986	78.35916	586.06281	-819.40717	-22.04859	463.90881	-592.02386	133.05756	466.89709	-602.62860	32.01846	572.68781	283.50262	179.09618	566.17194	276.96796	
4388	43.870	-139.50816	-26.77858	-510.33737	294.51590	-29.04637	-534.98523	-104.84443	29.36635	123.25938	323.05502	33.26223	89.71271	78.42157	586.16211	-819.46753	-21.79577	464.08493	-592.02051	133.50136	467.26013	-602.71600	32.36651	572.53192	283.48761	179.42302	566.12762	276.94339	
4389	43.880	-139.16174	-26.66267	-510.26907	294.69907	-28.88453	-534.92059	-104.63206	29.24694	123.30548	323.09991	33.15328	89.72971	78.46107	586.47198	-819.43823	-21.40380	464.28952	-592.06445	133.91469	467.58060	-602.68634	32.69764	572.85547	283.77563	179.63089	566.07648	276.90439	
4390	43.890	-138.92145	-26.57216	-510.37405	294.93198	-28.73180	-534.91211	-104.31887	29.26234	123.28484	323.21808	33.06189	89.76604	78.54652	586.77020	-819.39618	-20.67937	464.49817	-592.20746	134.24672	467.88824	-602.69128	32.89539	572.78680	283.79373	179.79430	566.07355	276.88257	
4391	43.900	-138.73734	-26.35159	-510.37033	294.86023	-28.39952	-534.90118	-103.90563	29.23341	123.37067	323.28214	33.02387	89.75738	78.54029	587.12115	-819.39209	-20.39233	464.92096	-592.23358	134.54709	468.28488	-602.79559	33.34885	572.66699	283.81891	180.26871	566.07715	276.85422	
4392	43.910	-138.58896	-26.04429	-510.33237	295.30698	-28.26680	-534.84296	-103.47875	29.14571	123.46963	323.34036	32.85731	89.68536	78.77560	587.42383	-819.39026	-20.21591	465.39325	-592.34296	134.89819	468.62054	-602.90430	33.74609	572.52655	283.78452	180.71037	566.00415	276.84793	
4393	43.920	-138.47322	-25.78835	-510.30948	295.61984	-27.91389	-534.79785	-103.18761	28.99526	123.52193	323.41364	32.73822	89.65946	78.97716	587.56720	-819.35138	-19.85900	465.54990	-592.26379	135.23042	469.22421	-603.02386	33.99664	572.08893	283.49200	181.24159	565.90070	276.87650	
4394	43.930	-138.27226	-25.47355	-510.31396	295.83298	-27.73323	-534.86188	-103.25992	29.05326	123.59196	323.63535	32.61301	89.71295	79.10910	587.70148	-819.30090	-19.38508	465.83371	-592.32709	135.32579	469.85342	-603.63556	34.43100	572.00330	283.47067	181.48874	565.83746	276.86487	
4395	43.940	-138.11348	-25.04045	-510.26208	296.03159	-27.53662	-534.85718	-103.16731	29.17748	123.51842	324.06775	32.59760	89.85162	79.52223	587.81458	-819.15460	-19.01630	466.11777	-592.33569	135.92821	470.00824	-603.06238	34.91664	571.90137	283.49292	181.83644	565.79474	276.85486	
4396	43.950	-137.96463	-24.74697	-510.24951	296.46573	-27.28352	-534.81549	-102.85156	29.23351	123.58669	324.55008	32.61909	89.92538	79.83437	587.98785	-819.02734	-18.69918	466.42325	-592.38837	136.26605	470.27692	-603.17450	35.31570	571.79779	283.49661	182.07729	565.76459	276.78391	
4397	43.960	-137.72804	-24.71158	-510.21353	296.59616	-27.18399	-534.93231	-102.49586	29.10814	123.76895	324.76990	32.58602	90.01610	79.73410	588.24500	-818.82605	-18.53363	466.68185	-592.44122	136.63803	470.38235	-603.30133	35.78520	572.20563	283.78772	182.54994	565.80353	276.73453	
4398	43.970	-137.36772	-24.82813	-510.08536	296.71808	-27.17776	-534.92126	-102.27330	29.19440	123.81654	324.82596	32.59475	90.03304	79.75860	588.51123	-818.97638	-18.32202	466.62054	-592.52466	136.90463	470.24036	-603.36011	36.27230	572.35272	283.65579	183.10091	566.00299	276.62686	
4399	43.980	-137.02377	-24.99676	-510.03351	296.87759	-27.19750	-534.95660	-102.04250	29.19058	123.84905	324.89871	32.59233	90.05125	79.82805	589.42499	-819.80493	-17.90363	466.37793	-592.57141	137.17586	470.08383	-603.44720	36.80985	572.44861	283.31183	183.88361	566.37860	276.42435	
4400	43.990	-136.69952	-25.10787	-509.97101	296.99203	-27.20232	-535.01196	-101.71445	29.12762	123.88939	325.08481	32.69442	90.09026	80.43812	590.96106	-820.63007	-17.28666	466.08676	-592.79254	137.30200	469.87732	-603.67493	37.62843	573.15143	283.21680	184.37723	566.83142	276.03860	
4401	44.000	-136.35245	-25.13115	-509.97894	297.11835	-27.10380	-534.97327	-101.49049	29.13365	123.86588	325.41891	32.78856	90.20805	81.08225	593.88397	-821.12701	-17.17376	466.09360	-593.03271	137.58160	469.72910	-604.04193	38.08383	573.51599	282.78564	184.74153	567.00085	275.65775	
4402	44.010	-136.32256	-24.98719	-509.79669	297.27679	-27.08145	-534.96826	-101.27937	29.15997	123.81675	325.98053	32.93011	90.23752	82.53503	598.07861	-821.26166	-17.01957	466.45102	-593.45801	138.11487	470.00418	-604.22827	38.30349	573.18713	282.35623	185.23265	566.86743	275.44870	
4403	44.020	-136.05386	-24.62790	-509.79745	297.76556	-26.79190	-534.79871	-101.05052	28.99401	123.79286	326.30859	32.68783	90.06778	83.57736	602.82507	-821.05640	-16.69097	467.16159	-593.59979	138.48102	471.02621	-605.03210	38.93987	573.01392	282.50433	185.83728	566.62030	275.32959	
4404	44.030	-135.80229	-24.05050	-510.06784	298.03445	-26.48149	-534.76978	-100.87529	28.82574	123.81442	326.55215	32.34478	90.04002	84.16577	607.21112	-820.64612	-16.03034	468.40509	-593.93488	138.55804	472.42831	-605.25525	39.51197	572.38336	282.59119	186.62543	566.00354	275.29156	
4405	44.040	-135.52440	-23.72109	-510.15494	298.25824	-26.19341	-534.81140	-100.65128	28.78178	123.81688	326.73291	32.25327	90.05945	84.33084	610.87384	-820.13678	-15.72740	470.10535	-594.08386	139.05431	474.05829	-605.46460	40.19177	571.12512	282.41953	186.94960	565.31476	275.25357	
4406	44.050	-135.97855	-22.92395	-510.41696	298.29831	-26.04442	-534.96368	-100.50784	28.73328	123.83247	327.05685	32.31039	90.17212	85.04373	613.62445	-819.61890	-15.16612	471.80496	-594.11865	139.73091	476.10791	-605.62506	40.37848	570.64496	282.79565	187.25427	564.55151	275.41196	
4407	44.060	-135.49809	-22.83554	-510.39807	298.82346	-25.81685	-534.93933	-100.28729	28.83572	123.91396	327.25986	32.30745	90.26251	84.60575	615.18286	-819.12085	-14.63653	473.74734	-594.26117	140.09399	478.12561	-605.63733	41.03199	569.56555	282.99850	187.86139	563.66968	275.72971	
4408	44.070	-134.84494	-23.02531	-510.45688	299.35132	-25.67132	-534.80756	-100.14099	28.89062	123.95200	327.49600	32.33164	90.39243	84.64503	615.60272	-818.87073	-14.42191	475.78290	-594.23096	140.61612	480.17331	-605.54657	41.27774	568.40247	282.99814	188.28142	563.03979	276.06558	
4409	44.080	-134.54169	-22.85221	-510.50537	299.53156	-25.60718	-534.75922	-99.90662	28.89341	123.96763	327.57047	32.19534	90.45731	84.15482	615.18311	-818.87256	-13.74874	477.66226	-594.29041	141.03871	482.36292	-605.54865	41.67710	567.65607	283.28879	188.97157	562.37811	276.24976	
4410	44.090	-134.25377	-22.68290	-510.52896	299.64108	-25.51803	-534.84424	-99.60002	28.83821	124.02495	327.72052	32.09029	90.53287	84.05986	614.03302	-818.89734	-13.15638	479.37531	-594.30127	141.48886	484.20370	-605.41760	42.11641	567.19769	283.58279	189.42610	562.01575	276.48282	
4411	44.100	-134.16698	-22.42423	-510.57880	299.88596	-25.71454	-535.12024	-99.09562	28.69268	124.16842	328.00183	32.03901	90.59290	83.75847	612.64813	-819.31128	-12.82347	480.59308	-594.07764	141.76868	485.53970	-605.38037	42.65848	567.06903	283.84344	189.72110	561.98102	276.68686	
4412	44.110	-134.13976	-22.22751	-510.61179	300.21307	-25.51864	-535.24286	-98.66026	28.75324	124.29905	328.39578	32.18471	90.70959	83.85254	610.80780	-819.42957	-12.78962	481.84491	-593.92346	142.00162	486.71271	-605.34314	43.28331	567.24933	284.10025	190.35187	562.07611	276.93472	
4413	44.120	-133.94673	-22.10793	-510.60913	300.39288	-24.99373	-535.20697	-98.44676	28.98167	124.32165	328.64948	32.13151	90.78308	83.99757	609.28552	-819.72400	-12.73409	482.53189	-593.84644	142.15997	487.41971	-605.26025	43.96376	567.49890	284.31961	191.28465	562.28345	277.08542	
